<?xml version="1.0" encoding="UTF-8" standalone="no"?>
<!-- Created with Inkscape (http://www.inkscape.org/) -->

<svg
   xmlns:dc="http://purl.org/dc/elements/1.1/"
   xmlns:cc="http://creativecommons.org/ns#"
   xmlns:rdf="http://www.w3.org/1999/02/22-rdf-syntax-ns#"
   xmlns:svg="http://www.w3.org/2000/svg"
   xmlns="http://www.w3.org/2000/svg"
   xmlns:sodipodi="http://sodipodi.sourceforge.net/DTD/sodipodi-0.dtd"
   xmlns:inkscape="http://www.inkscape.org/namespaces/inkscape"
   width="210mm"
   height="297mm"
   viewBox="0 0 744.09448819 1052.3622047"
   id="svg5209"
   version="1.1"
   inkscape:version="0.91 r13725"
   sodipodi:docname="transistor.svg"
   inkscape:export-filename="/home/lukhe/projets/meca/transistor.svg.png"
   inkscape:export-xdpi="90"
   inkscape:export-ydpi="90">
  <defs
     id="defs5211" />
  <sodipodi:namedview
     id="base"
     pagecolor="#ffffff"
     bordercolor="#666666"
     borderopacity="1.0"
     inkscape:pageopacity="0.0"
     inkscape:pageshadow="2"
     inkscape:zoom="1.979899"
     inkscape:cx="173.19333"
     inkscape:cy="944.46978"
     inkscape:document-units="px"
     inkscape:current-layer="layer1"
     showgrid="false"
     inkscape:window-width="1366"
     inkscape:window-height="715"
     inkscape:window-x="0"
     inkscape:window-y="0"
     inkscape:window-maximized="1" />
  <metadata
     id="metadata5214">
    <rdf:RDF>
      <cc:Work
         rdf:about="">
        <dc:format>image/svg+xml</dc:format>
        <dc:type
           rdf:resource="http://purl.org/dc/dcmitype/StillImage" />
        <dc:title></dc:title>
      </cc:Work>
    </rdf:RDF>
  </metadata>
  <g
     inkscape:label="Layer 1"
     inkscape:groupmode="layer"
     id="layer1">
    <path
       inkscape:connector-curvature="0"
       id="path22"
       style="fill:#dcdbdb;fill-opacity:1;fill-rule:nonzero;stroke:none"
       d="m 179.26164,164.77116 -12.81678,0 0,-5.12233 -48.34224,0 0,-110.235556 30.22982,0 0,-5.0826 c 0,-3.887983 -3.15093,-7.038921 -7.03823,-7.038921 l -4.15102,0 c -0.96926,1.327504 -2.52555,2.199492 -4.29418,2.199492 l -14.74639,0 0,-10.65565 14.74639,0 c 1.91522,0 3.58042,1.019945 4.51885,2.536505 l 12.05508,0 c 5.23124,0 9.47268,4.240066 9.47268,9.471308 l 0,8.569866 23.30529,0 c 7.30607,0 13.22846,5.92239 13.22846,13.227771 l 0,83.779325 c 0,7.30607 -5.92239,13.22846 -13.22846,13.22846 l -2.93927,0 0,5.12233" />
    <path
       inkscape:connector-curvature="0"
       id="path322"
       style="fill:#845333;fill-opacity:1;fill-rule:nonzero;stroke:none"
       d="m 87.20425,44.330674 c 0,-3.887983 3.150938,-7.038921 7.038236,-7.038921 l 4.81888,0 c -0.642517,-0.880208 -1.033644,-1.954951 -1.033644,-3.128333 0,-1.02748 0.304819,-1.977556 0.808969,-2.79132 l -12.723624,0 c -5.231242,0 -9.471308,4.240066 -9.471308,9.471308 l 0,8.569181 10.562491,0 0,-5.081915" />
    <path
       inkscape:connector-curvature="0"
       id="path324"
       style="fill:#845333;fill-opacity:1;fill-rule:nonzero;stroke:none"
       d="m 137.14319,37.291753 4.15102,0 c 3.8873,0 7.03823,3.150938 7.03823,7.038921 l 0,5.081915 10.56318,0 0,-8.569181 c 0,-5.231242 -4.24144,-9.471308 -9.47268,-9.471308 l -12.05508,0 c 0.50415,0.813764 0.80897,1.76384 0.80897,2.79132 0,1.173382 -0.39112,2.248125 -1.03364,3.128333" />
    <path
       inkscape:connector-curvature="0"
       id="path326"
       style="fill:#58351f;fill-opacity:1;fill-rule:nonzero;stroke:none"
       d="m 99.061366,37.291753 c 0.968574,1.327504 2.525544,2.199492 4.294184,2.199492 l 29.49346,0 c 1.76863,0 3.32561,-0.871988 4.29418,-2.199492 0.64252,-0.880208 1.03364,-1.954951 1.03364,-3.128333 0,-1.02748 -0.30482,-1.977556 -0.80897,-2.79132 -0.93843,-1.51656 -2.60363,-2.536505 -4.51885,-2.536505 l -29.49346,0 c -1.91523,0 -3.580428,1.019945 -4.518859,2.536505 -0.50415,0.813764 -0.808969,1.76384 -0.808969,2.79132 0,1.173382 0.391127,2.248125 1.033644,3.128333" />
    <path
       inkscape:connector-curvature="0"
       id="path328"
       style="fill:#58351f;fill-opacity:1;fill-rule:nonzero;stroke:none"
       d="m 48.859395,164.77116 12.817258,0 0,-5.12242 -12.817258,0 0,5.12242 z" />
    <path
       inkscape:connector-curvature="0"
       id="path330"
       style="fill:#58351f;fill-opacity:1;fill-rule:nonzero;stroke:none"
       d="m 166.44486,164.77116 12.81671,0 0,-5.12242 -12.81671,0 0,5.12242 z" />
    <path
       inkscape:connector-curvature="0"
       id="path332"
       style="fill:#ffffff;fill-opacity:1;fill-rule:nonzero;stroke:none"
       d="m 41.838969,142.46115 0,-0.5658 22.024369,0 c -1.619308,-1.03228 -3.144773,-2.19812 -4.55379,-3.49069 l -17.470579,0 0,-4.54078 13.362715,0 c -0.830204,-1.11036 -1.582319,-2.27963 -2.268675,-3.49206 l -11.09404,0 0,-4.54077 8.968527,0 c -0.428801,-1.13503 -0.796639,-2.2995 -1.098033,-3.49069 l -7.870494,0 0,-4.54078 7.06084,0 c -0.121928,-1.14735 -0.187686,-2.31183 -0.187686,-3.49138 l -6.873154,0 0,-4.54009 7.194412,0 c 0.164397,-1.18502 0.387703,-2.35155 0.676082,-3.49137 l -7.870494,0 0,-4.54078 9.381574,0 c 0.502095,-1.20215 1.076798,-2.366626 1.712466,-3.491374 l -11.09404,0 0,-4.540775 14.186069,0 c 1.00967,-1.24188 2.107018,-2.409782 3.28451,-3.491376 l -17.470579,0 0,-23.612168 c 0,-6.615599 5.362074,-11.978358 11.976987,-11.978358 l 122.017324,0 c 6.61491,0 11.97767,5.362759 11.97767,11.978358 l 0,23.612168 -84.28827,0 c 1.17749,1.081594 2.27416,2.249496 3.28451,3.491376 l 81.00376,0 0,4.540775 -77.91241,0 c 0.63635,1.124748 1.21105,2.289224 1.71246,3.491374 l 76.19995,0 0,4.54078 -74.68818,0 c 0.28838,1.13982 0.511,2.30635 0.67608,3.49137 l 74.0121,0 0,4.54009 -73.69153,0 c 0,1.17955 -0.0658,2.34403 -0.187,3.49138 l 73.87853,0 0,4.54078 -74.68818,0 c -0.3014,1.19119 -0.66992,2.35566 -1.09803,3.49069 l 75.78621,0 0,4.54077 -77.91241,0 c -0.68567,1.21243 -1.43779,2.3817 -2.26868,3.49206 l 80.18109,0 0,4.54078 -84.28827,0 c -1.4097,1.29257 -2.93516,2.45841 -4.553787,3.49069 l 88.842057,0 0,0.5658 c 0,6.6156 -5.36276,11.97836 -11.97767,11.97836 l -122.017324,0 c -6.614913,0 -11.976987,-5.36276 -11.976987,-11.97836 z m 7.020426,17.18768 133.341515,0 c 7.30607,0 13.22846,-5.92239 13.22846,-13.22846 l 0,-83.779325 c 0,-7.305381 -5.92239,-13.228456 -13.22846,-13.228456 l -134.752587,0 c -7.306066,0 -13.228459,5.923075 -13.228459,13.228456 l 0,83.779325 c 0,7.30607 5.922393,13.22846 13.228459,13.22846 l 1.411072,0" />
    <path
       inkscape:connector-curvature="0"
       id="path334"
       style="fill:#845333;fill-opacity:1;fill-rule:nonzero;stroke:none"
       d="m 41.838969,109.76811 0,4.54009 6.873154,0 c 0,-1.54122 0.114393,-3.05504 0.321258,-4.54009 l -7.194412,0" />
    <path
       inkscape:connector-curvature="0"
       id="path336"
       style="fill:#845333;fill-opacity:1;fill-rule:nonzero;stroke:none"
       d="m 134.7519,60.614855 c 6.36284,0 11.51942,5.157263 11.51942,11.518732 0,6.362154 -5.15658,11.519418 -11.51942,11.519418 -6.36215,0 -11.51873,-5.157264 -11.51873,-11.519418 0,-6.361469 5.15658,-11.518732 11.51873,-11.518732 z m 31.69296,0 c 6.36215,0 11.51873,5.157263 11.51873,11.518732 0,6.362154 -5.15658,11.519418 -11.51873,11.519418 -6.36216,0 -11.51874,-5.157264 -11.51874,-11.519418 0,-6.361469 5.15658,-11.518732 11.51874,-11.518732 z m -62.92218,29.59758 84.28827,0 0,-23.612168 c 0,-6.615599 -5.36276,-11.978358 -11.97767,-11.978358 l -122.017324,0 c -6.614913,0 -11.976987,5.362759 -11.976987,11.978358 l 0,23.612168 17.470579,0 c 5.8217,-5.343579 13.582595,-8.60754 22.106567,-8.60754 8.523971,0 16.284868,3.263961 22.106565,8.60754" />
    <path
       inkscape:connector-curvature="0"
       id="path338"
       style="fill:#845333;fill-opacity:1;fill-rule:nonzero;stroke:none"
       d="m 41.838969,125.83105 0,4.54077 11.09404,0 c -0.818559,-1.44874 -1.532999,-2.96462 -2.125513,-4.54077 l -8.968527,0" />
    <path
       inkscape:connector-curvature="0"
       id="path340"
       style="fill:#845333;fill-opacity:1;fill-rule:nonzero;stroke:none"
       d="m 41.838969,117.79958 0,4.54078 7.870494,0 c -0.372633,-1.47615 -0.645257,-2.99203 -0.809654,-4.54078 l -7.06084,0" />
    <path
       inkscape:connector-curvature="0"
       id="path342"
       style="fill:#845333;fill-opacity:1;fill-rule:nonzero;stroke:none"
       d="m 187.81095,122.34036 0,-4.54078 -73.87853,0 c -0.16508,1.54875 -0.43702,3.06463 -0.80965,4.54078 l 74.68818,0" />
    <path
       inkscape:connector-curvature="0"
       id="path344"
       style="fill:#845333;fill-opacity:1;fill-rule:nonzero;stroke:none"
       d="m 187.81095,114.3082 0,-4.54009 -74.0121,0 c 0.20687,1.48505 0.32057,2.99887 0.32057,4.54009 l 73.69153,0" />
    <path
       inkscape:connector-curvature="0"
       id="path346"
       style="fill:#845333;fill-opacity:1;fill-rule:nonzero;stroke:none"
       d="m 187.81095,130.37182 0,-4.54077 -75.78621,0 c -0.5932,1.57615 -1.30696,3.09203 -2.1262,4.54077 l 77.91241,0" />
    <path
       inkscape:connector-curvature="0"
       id="path348"
       style="fill:#845333;fill-opacity:1;fill-rule:nonzero;stroke:none"
       d="m 187.81095,106.27674 0,-4.54078 -76.19995,0 c 0.60964,1.46313 1.1179,2.97901 1.51177,4.54078 l 74.68818,0" />
    <path
       inkscape:connector-curvature="0"
       id="path350"
       style="fill:#845333;fill-opacity:1;fill-rule:nonzero;stroke:none"
       d="m 41.838969,93.703811 0,4.540775 11.09404,0 c 0.905552,-1.601498 1.939197,-3.121483 3.092029,-4.540775 l -14.186069,0" />
    <path
       inkscape:connector-curvature="0"
       id="path352"
       style="fill:#845333;fill-opacity:1;fill-rule:nonzero;stroke:none"
       d="m 103.52268,138.40466 84.28827,0 0,-4.54078 -80.18109,0 c -1.22475,1.63986 -2.60295,3.15916 -4.10718,4.54078" />
    <path
       inkscape:connector-curvature="0"
       id="path354"
       style="fill:#845333;fill-opacity:1;fill-rule:nonzero;stroke:none"
       d="m 55.201684,133.86388 -13.362715,0 0,4.54078 17.470579,0 c -1.504915,-1.38162 -2.883108,-2.90092 -4.107864,-4.54078" />
    <path
       inkscape:connector-curvature="0"
       id="path356"
       style="fill:#845333;fill-opacity:1;fill-rule:nonzero;stroke:none"
       d="m 175.83328,154.43951 c 6.61491,0 11.97767,-5.36276 11.97767,-11.97836 l 0,-0.5658 -88.842057,0 c -5.07301,3.23451 -11.091301,5.11616 -17.552778,5.11616 -6.461478,0 -12.480452,-1.88165 -17.552777,-5.11616 l -22.024369,0 0,0.5658 c 0,6.6156 5.362074,11.97836 11.976987,11.97836 l 122.017324,0" />
    <path
       inkscape:connector-curvature="0"
       id="path358"
       style="fill:#845333;fill-opacity:1;fill-rule:nonzero;stroke:none"
       d="m 187.81095,98.244586 0,-4.540775 -81.00376,0 c 1.15215,1.419292 2.1858,2.939277 3.09135,4.540775 l 77.91241,0" />
    <path
       inkscape:connector-curvature="0"
       id="path360"
       style="fill:#845333;fill-opacity:1;fill-rule:nonzero;stroke:none"
       d="m 41.838969,101.73596 0,4.54078 7.870494,0 c 0.393867,-1.56177 0.902127,-3.07765 1.51108,-4.54078 l -9.381574,0" />
    <path
       inkscape:connector-curvature="0"
       id="path362"
       style="fill:#58351f;fill-opacity:1;fill-rule:nonzero;stroke:none"
       d="m 52.487083,114.3082 c 0,-15.977305 12.952409,-28.929714 28.929032,-28.929714 15.976624,0 28.929035,12.952409 28.929035,28.929714 0,15.978 -12.952411,28.92972 -28.929035,28.92972 -15.976623,0 -28.929032,-12.95172 -28.929032,-28.92972 z m 46.48181,27.58715 c 1.618627,-1.03228 3.144087,-2.19812 4.553787,-3.49069 1.50423,-1.38162 2.88243,-2.90092 4.10718,-4.54078 0.83089,-1.11036 1.58301,-2.27963 2.26868,-3.49206 0.81924,-1.44874 1.533,-2.96462 2.1262,-4.54077 0.42811,-1.13503 0.79663,-2.2995 1.09803,-3.49069 0.37263,-1.47615 0.64457,-2.99203 0.80965,-4.54078 0.12125,-1.14735 0.187,-2.31183 0.187,-3.49138 0,-1.54122 -0.1137,-3.05504 -0.32057,-4.54009 -0.16508,-1.18502 -0.3877,-2.35155 -0.67608,-3.49137 -0.39387,-1.56177 -0.90213,-3.07765 -1.51177,-4.54078 -0.50141,-1.20215 -1.07611,-2.366626 -1.71246,-3.491374 -0.90555,-1.601498 -1.9392,-3.121483 -3.09135,-4.540775 -1.01035,-1.24188 -2.10702,-2.409782 -3.28451,-3.491376 -5.821697,-5.343579 -13.582594,-8.60754 -22.106565,-8.60754 -8.523972,0 -16.284867,3.263961 -22.106567,8.60754 -1.177492,1.081594 -2.27484,2.249496 -3.28451,3.491376 -1.152832,1.419292 -2.186477,2.939277 -3.092029,4.540775 -0.635668,1.124748 -1.210371,2.289224 -1.712466,3.491374 -0.608953,1.46313 -1.117213,2.97901 -1.51108,4.54078 -0.288379,1.13982 -0.511685,2.30635 -0.676082,3.49137 -0.206865,1.48505 -0.321258,2.99887 -0.321258,4.54009 0,1.17955 0.06576,2.34403 0.187686,3.49138 0.164397,1.54875 0.437021,3.06463 0.809654,4.54078 0.301394,1.19119 0.669232,2.35566 1.098033,3.49069 0.592514,1.57615 1.306954,3.09203 2.125513,4.54077 0.686356,1.21243 1.438471,2.3817 2.268675,3.49206 1.224756,1.63986 2.602949,3.15916 4.107864,4.54078 1.409017,1.29257 2.934482,2.45841 4.55379,3.49069 5.072325,3.23451 11.091299,5.11616 17.552777,5.11616 6.461477,0 12.479768,-1.88165 17.552778,-5.11616" />
    <path
       inkscape:connector-curvature="0"
       id="path364"
       style="fill:#ffffff;fill-opacity:1;fill-rule:nonzero;stroke:none"
       d="m 55.000983,114.3082 c 0,-14.588838 11.826976,-26.413759 26.415132,-26.413759 14.587472,0 26.414445,11.824921 26.414445,26.413759 0,14.58885 -11.826973,26.41445 -26.414445,26.41445 -14.588156,0 -26.415132,-11.8256 -26.415132,-26.41445 z m 55.344167,0 c 0,-15.977305 -12.952411,-28.929714 -28.929035,-28.929714 -15.976623,0 -28.929032,12.952409 -28.929032,28.929714 0,15.978 12.952409,28.92972 28.929032,28.92972 15.976624,0 28.929035,-12.95172 28.929035,-28.92972" />
    <path
       inkscape:connector-curvature="0"
       id="path366"
       style="fill:#bf935b;fill-opacity:1;fill-rule:nonzero;stroke:none"
       d="m 66.932077,130.4821 -1.688491,-1.68917 13.516836,-13.51821 c -0.110283,-0.30276 -0.180151,-0.62471 -0.180151,-0.96652 0,-1.56519 1.26928,-2.83515 2.835844,-2.83515 0.341123,0 0.663752,0.0699 0.966516,0.18015 l 13.518208,-13.518211 1.689176,1.688491 -13.518208,13.51889 c 0.109598,0.30345 0.180152,0.6254 0.180152,0.96583 0,1.56588 -1.269965,2.83516 -2.835844,2.83516 -0.341124,0 -0.663067,-0.0692 -0.965831,-0.17946 l -13.518207,13.5182 z m 40.898483,-16.1739 c 0,-14.588838 -11.826973,-26.413759 -26.414445,-26.413759 -14.588156,0 -26.415132,11.824921 -26.415132,26.413759 0,14.58885 11.826976,26.41445 26.415132,26.41445 14.587472,0 26.414445,-11.8256 26.414445,-26.41445" />
    <path
       inkscape:connector-curvature="0"
       id="path368"
       style="fill:#ed1c24;fill-opacity:1;fill-rule:nonzero;stroke:none"
       d="M 84.071807,113.34237 97.590015,99.82348 95.900839,98.134989 82.382631,111.6532 c 0.784994,0.28564 1.402852,0.90418 1.689176,1.68917" />
    <path
       inkscape:connector-curvature="0"
       id="path370"
       style="fill:#ed1c24;fill-opacity:1;fill-rule:nonzero;stroke:none"
       d="m 78.760422,115.27472 -13.516836,13.51821 1.688491,1.68917 13.518207,-13.5182 c -0.78568,-0.28633 -1.403538,-0.9035 -1.689862,-1.68918" />
    <path
       inkscape:connector-curvature="0"
       id="path372"
       style="fill:#845333;fill-opacity:1;fill-rule:nonzero;stroke:none"
       d="m 84.251959,114.3082 c 0,-0.34043 -0.07055,-0.66238 -0.180152,-0.96583 -0.286324,-0.78499 -0.904182,-1.40353 -1.689176,-1.68917 -0.302764,-0.11029 -0.625393,-0.18015 -0.966516,-0.18015 -1.566564,0 -2.835844,1.26996 -2.835844,2.83515 0,0.34181 0.06987,0.66376 0.180151,0.96652 0.286324,0.78568 0.904182,1.40285 1.689862,1.68918 0.302764,0.11028 0.624707,0.17946 0.965831,0.17946 1.565879,0 2.835844,-1.26928 2.835844,-2.83516" />
    <path
       inkscape:connector-curvature="0"
       id="path374"
       style="fill:#ffffff;fill-opacity:1;fill-rule:nonzero;stroke:none"
       d="m 166.44486,83.653005 c 6.36215,0 11.51873,-5.157264 11.51873,-11.519418 0,-6.361469 -5.15658,-11.518732 -11.51873,-11.518732 -6.36216,0 -11.51874,5.157263 -11.51874,11.518732 0,6.362154 5.15658,11.519418 11.51874,11.519418" />
    <path
       inkscape:connector-curvature="0"
       id="path376"
       style="fill:#ffffff;fill-opacity:1;fill-rule:nonzero;stroke:none"
       d="m 134.7519,83.653005 c 6.36284,0 11.51942,-5.157264 11.51942,-11.519418 0,-6.361469 -5.15658,-11.518732 -11.51942,-11.518732 -6.36215,0 -11.51873,5.157263 -11.51873,11.518732 0,6.362154 5.15658,11.519418 11.51873,11.519418" />
  </g>
</svg>
